<mxfile host="app.diagrams.net" agent="Mozilla/5.0 (Macintosh; Intel Mac OS X 10_15_7) AppleWebKit/537.36 (KHTML, like Gecko) Chrome/129.0.0.0 Safari/537.36" version="24.7.8">
  <diagram id="C5RBs43oDa-KdzZeNtuy" name="Page-1">
    <mxGraphModel dx="1883" dy="1149" grid="1" gridSize="10" guides="1" tooltips="1" connect="1" arrows="1" fold="1" page="1" pageScale="1" pageWidth="827" pageHeight="1169" math="0" shadow="0">
      <root>
        <mxCell id="WIyWlLk6GJQsqaUBKTNV-0" />
        <mxCell id="WIyWlLk6GJQsqaUBKTNV-1" parent="WIyWlLk6GJQsqaUBKTNV-0" />
        <mxCell id="aiz9NVA0Y3OCllCTxsPK-2" value="" style="edgeStyle=orthogonalEdgeStyle;rounded=0;orthogonalLoop=1;jettySize=auto;html=1;" edge="1" parent="WIyWlLk6GJQsqaUBKTNV-1" source="aiz9NVA0Y3OCllCTxsPK-0" target="aiz9NVA0Y3OCllCTxsPK-1">
          <mxGeometry relative="1" as="geometry" />
        </mxCell>
        <mxCell id="aiz9NVA0Y3OCllCTxsPK-0" value="메인 화면 시작" style="rounded=1;whiteSpace=wrap;html=1;" vertex="1" parent="WIyWlLk6GJQsqaUBKTNV-1">
          <mxGeometry x="622" y="80" width="120" height="60" as="geometry" />
        </mxCell>
        <mxCell id="aiz9NVA0Y3OCllCTxsPK-5" value="" style="edgeStyle=orthogonalEdgeStyle;rounded=0;orthogonalLoop=1;jettySize=auto;html=1;" edge="1" parent="WIyWlLk6GJQsqaUBKTNV-1" source="aiz9NVA0Y3OCllCTxsPK-1" target="aiz9NVA0Y3OCllCTxsPK-4">
          <mxGeometry relative="1" as="geometry" />
        </mxCell>
        <mxCell id="aiz9NVA0Y3OCllCTxsPK-1" value="에니메이션" style="whiteSpace=wrap;html=1;rounded=1;" vertex="1" parent="WIyWlLk6GJQsqaUBKTNV-1">
          <mxGeometry x="622" y="220" width="120" height="60" as="geometry" />
        </mxCell>
        <mxCell id="aiz9NVA0Y3OCllCTxsPK-7" value="예" style="edgeStyle=orthogonalEdgeStyle;rounded=0;orthogonalLoop=1;jettySize=auto;html=1;" edge="1" parent="WIyWlLk6GJQsqaUBKTNV-1" source="aiz9NVA0Y3OCllCTxsPK-4" target="aiz9NVA0Y3OCllCTxsPK-6">
          <mxGeometry relative="1" as="geometry" />
        </mxCell>
        <mxCell id="aiz9NVA0Y3OCllCTxsPK-9" value="아니오" style="edgeStyle=orthogonalEdgeStyle;rounded=0;orthogonalLoop=1;jettySize=auto;html=1;" edge="1" parent="WIyWlLk6GJQsqaUBKTNV-1" source="aiz9NVA0Y3OCllCTxsPK-4" target="aiz9NVA0Y3OCllCTxsPK-8">
          <mxGeometry relative="1" as="geometry" />
        </mxCell>
        <mxCell id="aiz9NVA0Y3OCllCTxsPK-4" value="새로 시작하기를 선택하였는가" style="rhombus;whiteSpace=wrap;html=1;rounded=1;" vertex="1" parent="WIyWlLk6GJQsqaUBKTNV-1">
          <mxGeometry x="597.5" y="350" width="169" height="80" as="geometry" />
        </mxCell>
        <mxCell id="aiz9NVA0Y3OCllCTxsPK-18" value="" style="edgeStyle=orthogonalEdgeStyle;rounded=0;orthogonalLoop=1;jettySize=auto;html=1;" edge="1" parent="WIyWlLk6GJQsqaUBKTNV-1" source="aiz9NVA0Y3OCllCTxsPK-6" target="aiz9NVA0Y3OCllCTxsPK-17">
          <mxGeometry relative="1" as="geometry" />
        </mxCell>
        <mxCell id="aiz9NVA0Y3OCllCTxsPK-6" value="캐릭터 선택하기 화면&lt;div&gt;시작&lt;/div&gt;" style="whiteSpace=wrap;html=1;rounded=1;" vertex="1" parent="WIyWlLk6GJQsqaUBKTNV-1">
          <mxGeometry x="373" y="360" width="120" height="60" as="geometry" />
        </mxCell>
        <mxCell id="aiz9NVA0Y3OCllCTxsPK-11" value="예" style="edgeStyle=orthogonalEdgeStyle;rounded=0;orthogonalLoop=1;jettySize=auto;html=1;" edge="1" parent="WIyWlLk6GJQsqaUBKTNV-1" source="aiz9NVA0Y3OCllCTxsPK-8" target="aiz9NVA0Y3OCllCTxsPK-10">
          <mxGeometry relative="1" as="geometry" />
        </mxCell>
        <mxCell id="aiz9NVA0Y3OCllCTxsPK-13" value="아니오" style="edgeStyle=orthogonalEdgeStyle;rounded=0;orthogonalLoop=1;jettySize=auto;html=1;" edge="1" parent="WIyWlLk6GJQsqaUBKTNV-1" source="aiz9NVA0Y3OCllCTxsPK-8" target="aiz9NVA0Y3OCllCTxsPK-12">
          <mxGeometry relative="1" as="geometry" />
        </mxCell>
        <mxCell id="aiz9NVA0Y3OCllCTxsPK-8" value="과거 불러오기를 선택하였는가" style="rhombus;whiteSpace=wrap;html=1;rounded=1;" vertex="1" parent="WIyWlLk6GJQsqaUBKTNV-1">
          <mxGeometry x="596" y="510" width="172" height="80" as="geometry" />
        </mxCell>
        <mxCell id="aiz9NVA0Y3OCllCTxsPK-22" value="" style="edgeStyle=orthogonalEdgeStyle;rounded=0;orthogonalLoop=1;jettySize=auto;html=1;" edge="1" parent="WIyWlLk6GJQsqaUBKTNV-1" source="aiz9NVA0Y3OCllCTxsPK-10" target="aiz9NVA0Y3OCllCTxsPK-21">
          <mxGeometry relative="1" as="geometry" />
        </mxCell>
        <mxCell id="aiz9NVA0Y3OCllCTxsPK-10" value="저장된 파일 선택 화면&lt;div&gt;시작&lt;/div&gt;" style="whiteSpace=wrap;html=1;rounded=1;" vertex="1" parent="WIyWlLk6GJQsqaUBKTNV-1">
          <mxGeometry x="370" y="520" width="120" height="60" as="geometry" />
        </mxCell>
        <mxCell id="aiz9NVA0Y3OCllCTxsPK-15" value="예" style="edgeStyle=orthogonalEdgeStyle;rounded=0;orthogonalLoop=1;jettySize=auto;html=1;" edge="1" parent="WIyWlLk6GJQsqaUBKTNV-1" source="aiz9NVA0Y3OCllCTxsPK-12" target="aiz9NVA0Y3OCllCTxsPK-14">
          <mxGeometry relative="1" as="geometry" />
        </mxCell>
        <mxCell id="aiz9NVA0Y3OCllCTxsPK-16" value="아니오" style="edgeStyle=orthogonalEdgeStyle;rounded=0;orthogonalLoop=1;jettySize=auto;html=1;exitX=1;exitY=0.5;exitDx=0;exitDy=0;entryX=1;entryY=0.5;entryDx=0;entryDy=0;" edge="1" parent="WIyWlLk6GJQsqaUBKTNV-1" source="aiz9NVA0Y3OCllCTxsPK-12" target="aiz9NVA0Y3OCllCTxsPK-4">
          <mxGeometry relative="1" as="geometry" />
        </mxCell>
        <mxCell id="aiz9NVA0Y3OCllCTxsPK-12" value="돌아가기를 선택하였는가?" style="rhombus;whiteSpace=wrap;html=1;rounded=1;" vertex="1" parent="WIyWlLk6GJQsqaUBKTNV-1">
          <mxGeometry x="596" y="670" width="172" height="80" as="geometry" />
        </mxCell>
        <mxCell id="aiz9NVA0Y3OCllCTxsPK-14" value="나가기" style="whiteSpace=wrap;html=1;rounded=1;" vertex="1" parent="WIyWlLk6GJQsqaUBKTNV-1">
          <mxGeometry x="370" y="680" width="120" height="60" as="geometry" />
        </mxCell>
        <mxCell id="aiz9NVA0Y3OCllCTxsPK-19" value="아니오" style="edgeStyle=orthogonalEdgeStyle;rounded=0;orthogonalLoop=1;jettySize=auto;html=1;exitX=0.5;exitY=0;exitDx=0;exitDy=0;entryX=0.5;entryY=0;entryDx=0;entryDy=0;" edge="1" parent="WIyWlLk6GJQsqaUBKTNV-1" source="aiz9NVA0Y3OCllCTxsPK-17" target="aiz9NVA0Y3OCllCTxsPK-6">
          <mxGeometry relative="1" as="geometry" />
        </mxCell>
        <mxCell id="aiz9NVA0Y3OCllCTxsPK-27" value="예" style="edgeStyle=orthogonalEdgeStyle;rounded=0;orthogonalLoop=1;jettySize=auto;html=1;exitX=0;exitY=0.5;exitDx=0;exitDy=0;entryX=0.25;entryY=0;entryDx=0;entryDy=0;" edge="1" parent="WIyWlLk6GJQsqaUBKTNV-1" source="aiz9NVA0Y3OCllCTxsPK-17" target="aiz9NVA0Y3OCllCTxsPK-26">
          <mxGeometry relative="1" as="geometry" />
        </mxCell>
        <mxCell id="aiz9NVA0Y3OCllCTxsPK-17" value="직업을 선택했는가?" style="rhombus;whiteSpace=wrap;html=1;rounded=1;" vertex="1" parent="WIyWlLk6GJQsqaUBKTNV-1">
          <mxGeometry x="180" y="350" width="120" height="80" as="geometry" />
        </mxCell>
        <mxCell id="aiz9NVA0Y3OCllCTxsPK-23" value="아니오" style="edgeStyle=orthogonalEdgeStyle;rounded=0;orthogonalLoop=1;jettySize=auto;html=1;exitX=0.5;exitY=0;exitDx=0;exitDy=0;entryX=0.5;entryY=1;entryDx=0;entryDy=0;" edge="1" parent="WIyWlLk6GJQsqaUBKTNV-1" source="aiz9NVA0Y3OCllCTxsPK-21" target="aiz9NVA0Y3OCllCTxsPK-6">
          <mxGeometry relative="1" as="geometry" />
        </mxCell>
        <mxCell id="aiz9NVA0Y3OCllCTxsPK-25" value="예" style="edgeStyle=orthogonalEdgeStyle;rounded=0;orthogonalLoop=1;jettySize=auto;html=1;" edge="1" parent="WIyWlLk6GJQsqaUBKTNV-1" source="aiz9NVA0Y3OCllCTxsPK-21" target="aiz9NVA0Y3OCllCTxsPK-24">
          <mxGeometry relative="1" as="geometry">
            <Array as="points">
              <mxPoint x="240" y="610" />
            </Array>
          </mxGeometry>
        </mxCell>
        <mxCell id="aiz9NVA0Y3OCllCTxsPK-21" value="파일이 있는가?" style="rhombus;whiteSpace=wrap;html=1;rounded=1;" vertex="1" parent="WIyWlLk6GJQsqaUBKTNV-1">
          <mxGeometry x="185" y="510" width="110" height="80" as="geometry" />
        </mxCell>
        <mxCell id="aiz9NVA0Y3OCllCTxsPK-28" value="예" style="edgeStyle=orthogonalEdgeStyle;rounded=0;orthogonalLoop=1;jettySize=auto;html=1;exitX=0.5;exitY=1;exitDx=0;exitDy=0;entryX=0.75;entryY=0;entryDx=0;entryDy=0;" edge="1" parent="WIyWlLk6GJQsqaUBKTNV-1" source="aiz9NVA0Y3OCllCTxsPK-24" target="aiz9NVA0Y3OCllCTxsPK-26">
          <mxGeometry relative="1" as="geometry" />
        </mxCell>
        <mxCell id="aiz9NVA0Y3OCllCTxsPK-29" value="아니오" style="edgeStyle=orthogonalEdgeStyle;rounded=0;orthogonalLoop=1;jettySize=auto;html=1;exitX=1;exitY=0.5;exitDx=0;exitDy=0;entryX=0.5;entryY=1;entryDx=0;entryDy=0;" edge="1" parent="WIyWlLk6GJQsqaUBKTNV-1" source="aiz9NVA0Y3OCllCTxsPK-24" target="aiz9NVA0Y3OCllCTxsPK-10">
          <mxGeometry relative="1" as="geometry" />
        </mxCell>
        <mxCell id="aiz9NVA0Y3OCllCTxsPK-24" value="파일을 선택했는가?" style="rhombus;whiteSpace=wrap;html=1;rounded=1;" vertex="1" parent="WIyWlLk6GJQsqaUBKTNV-1">
          <mxGeometry x="100" y="630" width="110" height="80" as="geometry" />
        </mxCell>
        <mxCell id="aiz9NVA0Y3OCllCTxsPK-26" value="게임 화면 시작" style="rounded=1;whiteSpace=wrap;html=1;" vertex="1" parent="WIyWlLk6GJQsqaUBKTNV-1">
          <mxGeometry x="65" y="800" width="120" height="60" as="geometry" />
        </mxCell>
      </root>
    </mxGraphModel>
  </diagram>
</mxfile>
